<svg width="191" height="136" viewBox="0 0 191 136" fill="none" xmlns="http://www.w3.org/2000/svg">
<path d="M46.9145 40.232C48.6905 40.04 50.5625 39.944 52.5305 39.944C54.4985 39.944 56.7065 40.208 59.1545 40.736C61.6505 41.264 63.5705 42.248 64.9145 43.688C66.4025 45.224 67.1465 46.976 67.1465 48.944C67.1465 50.864 66.6185 52.784 65.5625 54.704C64.5065 56.624 62.8985 58.568 60.7385 60.536C54.4025 66.296 46.3385 69.176 36.5465 69.176C33.9065 69.176 31.5545 68.888 29.4905 68.312C27.4745 67.784 26.1545 67.304 25.5305 66.872C24.9065 66.488 24.1385 65.936 23.2265 65.216C22.3625 64.496 22.1705 64.136 22.6505 64.136C22.8905 64.136 23.6105 64.352 24.8105 64.784C26.0105 65.216 28.2185 65.432 31.4345 65.432C34.6985 65.432 38.1785 65.072 41.8745 64.352C45.5705 63.584 48.7385 62.456 51.3785 60.968C54.0185 59.48 56.1065 57.8 57.6425 55.928C59.5145 53.672 60.4505 51.392 60.4505 49.088C60.4505 47.84 60.1145 46.568 59.4425 45.272C58.7705 43.976 57.4265 42.992 55.4105 42.32C53.3945 41.6 51.5945 41.24 50.0105 41.24C48.4265 41.24 46.6025 41.336 44.5385 41.528C42.5225 41.72 39.9305 42.368 36.7625 43.472C33.5945 44.576 31.4825 45.896 30.4265 47.432C29.3705 48.968 28.4585 50.408 27.6905 51.752C26.9225 53.048 26.1545 54.44 25.3865 55.928C24.6185 57.416 24.0185 58.544 23.5865 59.312C23.2985 59.984 22.9385 60.32 22.5065 60.32C22.1225 60.32 21.9305 60.152 21.9305 59.816C21.9305 58.232 23.7785 54.584 27.4745 48.872C31.2185 43.112 34.7945 38.024 38.2025 33.608C41.6105 29.144 43.6025 26.912 44.1785 26.912C44.4665 26.912 44.7065 27.056 44.8985 27.344C45.0905 27.584 45.1625 27.848 45.1145 28.136C39.1145 35.672 35.5145 40.208 34.3145 41.744C51.8825 38.816 62.5625 34.616 66.3545 29.144C66.9305 28.232 67.2185 27.368 67.2185 26.552C67.2185 25.736 66.8345 24.968 66.0665 24.248C64.5305 22.856 61.6505 22.16 57.4265 22.16C53.2505 22.16 47.7305 23.144 40.8665 25.112C34.0505 27.032 29.2985 29.144 26.6105 31.448C25.7945 32.072 25.5065 32.6 25.7465 33.032C25.9865 33.416 26.0345 33.632 25.8905 33.68C25.7465 33.728 25.5545 33.656 25.3145 33.464C24.3065 32.888 23.6585 32.168 23.3705 31.304C23.0825 30.392 22.9385 29.744 22.9385 29.36C22.9385 28.928 23.0585 28.592 23.2985 28.352C25.3625 25.376 30.1385 22.736 37.6265 20.432C45.1625 18.08 50.9225 16.904 54.9065 16.904C62.8745 16.904 67.8905 18.272 69.9545 21.008C70.7705 22.064 71.1785 23.192 71.1785 24.392C71.1785 26.264 70.1225 28.208 68.0105 30.224C63.1145 34.784 56.0825 38.12 46.9145 40.232ZM80.8681 55.64C82.9881 54.48 84.0481 53.3 84.0481 52.1C84.0481 50.9 83.3281 50.3 81.8881 50.3C81.2081 50.3 80.4881 50.48 79.7281 50.84C78.0481 51.6 76.4281 52.92 74.8681 54.8C72.9481 57.12 71.9881 59.28 71.9881 61.28C71.9881 62.04 72.1881 62.76 72.5881 63.44C73.0281 64.08 73.7881 64.4 74.8681 64.4C76.7481 64.4 79.1281 63.42 82.0081 61.46C84.8881 59.46 87.3681 57.46 89.4481 55.46C89.9281 54.98 90.1681 54.96 90.1681 55.4C90.1681 55.68 90.0481 55.92 89.8081 56.12C88.3281 57.48 87.3281 58.4 86.8081 58.88C86.3281 59.32 85.3481 60.14 83.8681 61.34C82.3881 62.5 81.1881 63.32 80.2681 63.8C77.4281 65.28 75.0081 66.02 73.0081 66.02C71.0481 66.02 69.4881 65.58 68.3281 64.7C67.2081 63.78 66.6481 62.52 66.6481 60.92C66.6481 57.52 68.1681 54.6 71.2081 52.16C74.2481 49.68 77.4281 48.44 80.7481 48.44C82.9881 48.44 84.4881 48.92 85.2481 49.88C85.5681 50.36 85.7281 50.88 85.7281 51.44C85.7281 51.96 85.5481 52.54 85.1881 53.18C84.4681 54.42 83.1081 55.52 81.1081 56.48C79.1481 57.4 77.2881 57.86 75.5281 57.86C74.8481 57.86 74.4681 57.8 74.3881 57.68C74.3481 57.56 74.4081 57.48 74.5681 57.44C74.7281 57.36 74.9481 57.32 75.2281 57.32C76.8281 57.32 78.7081 56.76 80.8681 55.64Z" fill="white"/>
<path d="M132.048 40.52C135.552 35.624 137.304 31.784 137.304 29C137.304 27.032 136.368 25.496 134.496 24.392C133.104 23.576 131.256 23.168 128.952 23.168C124.728 23.168 120.312 23.672 115.704 24.68C107.016 26.552 100.008 28.712 94.6799 31.16C90.7439 32.936 88.7759 34.592 88.7759 36.128C88.7759 36.944 89.3039 37.712 90.3599 38.432C90.6479 38.672 90.5999 38.792 90.2159 38.792C89.8319 38.792 89.5439 38.72 89.3519 38.576C87.9119 37.616 87.1919 36.368 87.1919 34.832C87.1919 33.296 87.6239 31.784 88.4879 30.296C89.3999 28.76 90.8639 27.44 92.8799 26.336C97.4879 23.696 103.008 21.56 109.44 19.928C116.352 18.152 122.808 17.264 128.808 17.264C135.144 17.264 139.224 18.44 141.048 20.792C142.248 22.28 142.848 23.768 142.848 25.256C142.848 26.696 142.56 28.136 141.984 29.576C140.928 32.504 139.224 35.384 136.872 38.216L134.208 41.384C134.928 41.768 135.576 42.248 136.152 42.824C136.632 43.4 136.752 43.88 136.512 44.264C136.272 44.6 135.84 44.576 135.216 44.192C134.592 43.76 133.8 43.376 132.84 43.04C126.216 50.96 122.472 55.52 121.608 56.72C120.744 57.872 120.048 58.808 119.52 59.528C118.992 60.2 118.632 60.656 118.44 60.896C118.296 61.136 118.008 61.568 117.576 62.192C117.144 62.816 116.832 63.32 116.64 63.704C116.496 64.088 116.304 64.568 116.064 65.144C115.68 66.056 115.488 67.184 115.488 68.528C115.488 69.92 116.064 70.616 117.216 70.616C117.552 70.616 117.936 70.544 118.368 70.4C118.8 70.304 119.016 70.376 119.016 70.616C119.016 70.856 118.728 71.048 118.152 71.192C117.624 71.384 117.024 71.48 116.352 71.48C115.728 71.48 115.08 71.192 114.408 70.616C113.784 70.04 113.472 69.152 113.472 67.952C113.472 66.752 113.904 65.36 114.768 63.776C115.632 62.192 116.952 60.2 118.728 57.8C120.504 55.352 122.688 52.496 125.28 49.232C127.92 45.92 129.672 43.688 130.536 42.536C129.336 42.392 127.608 42.32 125.352 42.32C123.144 42.32 120.096 42.728 116.208 43.544C115.632 43.64 114.864 43.832 113.904 44.12C112.992 44.36 112.32 44.528 111.888 44.624C110.112 45.008 109.08 44.984 108.792 44.552C108.12 44.168 107.784 43.712 107.784 43.184C107.784 42.656 108.24 42.032 109.152 41.312C110.064 40.544 111.528 39.968 113.544 39.584C115.56 39.2 117.648 39.008 119.808 39.008C124.656 39.008 128.736 39.512 132.048 40.52ZM147.399 46.7C146.959 46.34 146.779 45.82 146.859 45.14C146.939 44.46 147.299 43.74 147.939 42.98C148.579 42.22 149.439 41.84 150.519 41.84C150.839 41.84 151.179 42 151.539 42.32C151.899 42.6 152.039 43.1 151.959 43.82C151.879 44.5 151.559 45.16 150.999 45.8C150.439 46.4 149.799 46.8 149.079 47C148.399 47.16 147.839 47.06 147.399 46.7ZM146.619 49.88C144.979 51.56 143.599 53.7 142.479 56.3C141.399 58.86 140.859 60.66 140.859 61.7C140.859 62.74 141.259 63.26 142.059 63.26C142.899 63.26 144.259 62.66 146.139 61.46C148.059 60.26 150.239 58.56 152.679 56.36C153.199 55.88 153.459 55.94 153.459 56.54C153.459 56.62 153.419 56.7 153.339 56.78C151.419 58.46 149.799 59.84 148.479 60.92C147.159 62 145.579 63.04 143.739 64.04C141.939 65 140.459 65.48 139.299 65.48C137.859 65.48 136.779 65.16 136.059 64.52C135.379 63.88 135.039 63.18 135.039 62.42C135.039 60.98 135.299 59.84 135.819 59C136.339 58.16 137.219 57 138.459 55.52C138.019 55.88 137.319 56.48 136.359 57.32C135.439 58.16 134.799 58.72 134.439 59C134.079 59.28 133.899 59.2 133.899 58.76C133.899 58.48 134.219 58.08 134.859 57.56C135.499 57.04 136.879 55.72 138.999 53.6C141.159 51.48 142.619 50.22 143.379 49.82C144.179 49.42 144.819 49.22 145.299 49.22C145.819 49.22 146.199 49.3 146.439 49.46C146.679 49.58 146.739 49.72 146.619 49.88ZM162.366 44.42C163.246 43.1 163.946 42.06 164.466 41.3C165.026 40.5 165.466 39.92 165.786 39.56C166.106 39.2 166.826 38.9 167.946 38.66C169.066 38.38 170.146 38.24 171.186 38.24C172.226 38.24 172.746 38.36 172.746 38.6C172.746 38.8 171.886 39.72 170.166 41.36C168.446 43 166.446 45.18 164.166 47.9C166.886 48.34 168.666 49.2 169.506 50.48C169.826 51.04 169.866 51.4 169.626 51.56C169.426 51.72 169.186 51.66 168.906 51.38C168.066 50.54 166.726 50.12 164.886 50.12C164.086 50.12 163.186 50.2 162.186 50.36C158.946 54.52 156.906 57.92 156.066 60.56C155.786 61.32 155.646 61.96 155.646 62.48C155.646 63.88 156.226 64.58 157.386 64.58C158.626 64.58 160.366 63.72 162.606 62C165.526 59.8 168.066 57.62 170.226 55.46C170.626 55.02 170.886 54.92 171.006 55.16C171.126 55.4 171.026 55.66 170.706 55.94C167.266 59.54 164.366 62.2 162.006 63.92C159.686 65.6 157.546 66.44 155.586 66.44C152.906 66.44 151.566 65.02 151.566 62.18C151.566 60.82 151.946 59.2 152.706 57.32L151.626 58.34C151.306 58.66 151.086 58.76 150.966 58.64C150.806 58.48 150.726 58.34 150.726 58.22C150.726 58.1 150.886 57.9 151.206 57.62C154.126 55.06 156.126 53.12 157.206 51.8C156.446 52.08 155.926 52.1 155.646 51.86C155.406 51.62 155.226 51.3 155.106 50.9C155.026 50.5 155.226 50.02 155.706 49.46C156.226 48.86 156.966 48.44 157.926 48.2C158.926 47.92 159.666 47.76 160.146 47.72C160.746 46.84 161.486 45.74 162.366 44.42Z" fill="url(#paint0_linear)"/>
<path d="M6.80593 62.5C12.0635 34.5 41.8059 23.6667 54.8059 22V17C39.4724 17.5 5.0532 26.965 0.305451 62.5C-3.60743 91.7864 30.9653 101.096 52.9048 100.167C54.5727 100.097 56.1888 100.783 57.2304 102.088L79.2514 129.67C81.572 132.576 86.1408 132.022 87.6989 128.645L107.466 85.7973C109.072 82.3172 113.835 81.8632 116.069 84.9774L126.068 98.9145C127.007 100.224 128.519 101 130.13 101H188.562C189.391 101 190.062 100.328 190.062 99.5C190.062 98.6716 189.391 98 188.562 98H133.331C131.752 98 130.266 97.2544 129.323 95.9887L116.127 78.2909C113.852 75.2394 109.137 75.748 107.565 79.2144L87.7424 122.922C86.1845 126.357 81.5293 126.896 79.2277 123.908L57.3851 95.5502C56.3947 94.2644 54.8585 93.5385 53.2355 93.5312C42.4158 93.4824 1.37808 91.4068 6.80593 62.5Z" fill="white"/>
<defs>
<linearGradient id="paint0_linear" x1="94.5625" y1="0" x2="94.5625" y2="90" gradientUnits="userSpaceOnUse">
<stop stop-color="#A52A98"/>
<stop offset="1" stop-color="#050BA2"/>
</linearGradient>
</defs>
</svg>
